<?xml version="1.0" encoding="UTF-8" standalone="no"?>
<!-- Created with Inkscape (http://www.inkscape.org/) -->

<svg
   width="48"
   height="48"
   viewBox="0 0 48 48"
   version="1.1"
   id="svg1"
   xmlns="http://www.w3.org/2000/svg"
   xmlns:svg="http://www.w3.org/2000/svg">
  <defs
     id="defs1" />
  <g
     id="g4"
     transform="matrix(0.78557772,0,0,0.78557772,-1.1412216,-1.1406742)">
    <path
       d="m 32,5 c 10.73,-0.15248 21.065,6.8253 25.005,16.794 4.127,9.7919 1.7066,21.881 -5.9129,29.298 -7.4171,7.619 -19.506,10.04 -29.297,5.9124 -9.9684,-3.9401 -16.947,-14.274 -16.794,-25.004 -0.15234,-10.73 6.8256,-21.064 16.794,-25.004 3.229,-1.3224 6.7174,-1.9987 10.206,-1.9956 z"
       fill="#373d20"
       stroke="#717744"
       stroke-linecap="round"
       stroke-linejoin="round"
       stroke-width="2"
       style="display:inline;fill:#f6f5f4;stroke:#26a269;paint-order:normal"
       id="path1" />
    <path
       id="path2"
       style="display:inline;mix-blend-mode:normal;fill:#2ec27e;stroke:none;paint-order:normal"
       d="M 36.990853,10.740566 C 33.24169,15.789735 29.49233,20.839741 25.74316,25.889151 c 4.949213,1.10988 9.898483,2.219178 14.847751,3.329058 -1.200035,-6.159297 -2.400023,-12.318586 -3.600058,-18.477643 z m -12.71954,17.127622 c -1.573902,2.119756 -3.147495,4.240037 -4.721346,6.35977 7.517183,0.915847 15.035581,1.831389 22.55257,2.747281 C 41.641211,34.607446 41.179035,32.239893 40.717709,29.872087 35.235711,29.20452 29.753346,28.535758 24.271313,27.868188 Z m -5.15395,6.944033 c -1.841107,2.479692 -3.683402,4.959187 -5.524397,7.438793 10.299,2.3281 20.59835,4.655614 30.89635,6.983814 -0.592744,-3.042201 -1.184909,-6.084656 -1.777653,-9.126942 -7.865108,-1.764247 -15.729382,-3.531437 -23.5943,-5.295665 z" />
    <path
       d="m 33.275,19.953 c 0.28164,0.4007 0.72152,0.75535 0.91042,1.183 l -1.0839,8.6423 c 1.5943,-0.94848 3.1885,-1.897 4.7828,-2.8454 -0.23547,0.50866 -0.30222,1.143 -0.64862,1.569 -1.4463,1.0662 -2.8926,2.1324 -4.3389,3.1987 -1.0761,7.0586 -2.1522,14.117 -3.2283,21.176 -0.51402,-0.43099 -1.028,-0.86199 -1.5421,-1.293 l 1.6549,-10.409 -6.4252,-5.3123 c 0.40875,-0.04752 0.88673,-0.53809 1.2312,-0.17409 1.8539,1.3909 3.7079,2.7818 5.5618,4.1726 l 3.1259,-19.908 z"
       fill="#2b1708"
       style="display:inline;mix-blend-mode:normal;fill:#865e3c;paint-order:normal"
       id="path4" />
  </g>
</svg>
